REM MD5 34a48d9a39814019f09a700eeef9c266
FILE "radicalgames@psygnosis v.2 (Europe).bin" BINARY
  TRACK 01 MODE2/2352
    INDEX 01 00:00:00
  TRACK 02 AUDIO
    INDEX 00 17:27:38
    INDEX 01 17:29:38
  TRACK 03 AUDIO
    INDEX 00 20:09:37
    INDEX 01 20:11:37
  TRACK 04 AUDIO
    INDEX 00 20:26:38
    INDEX 01 20:28:38
  TRACK 05 AUDIO
    INDEX 00 20:32:38
    INDEX 01 20:34:38
  TRACK 06 AUDIO
    INDEX 00 25:05:49
    INDEX 01 25:07:49
REM LEADOUT 29:38:60
